<?xml version="1.0" standalone="no"?>
<!DOCTYPE svg PUBLIC "-//W3C//DTD SVG 20010904//EN"
 "http://www.w3.org/TR/2001/REC-SVG-20010904/DTD/svg10.dtd">
<svg version="1.0" xmlns="http://www.w3.org/2000/svg"
 width="700.000000pt" height="700.000000pt" viewBox="0 0 700.000000 700.000000"
 preserveAspectRatio="xMidYMid meet">
<metadata>
Created by potrace 1.11, written by Peter Selinger 2001-2013
</metadata>
<g transform="translate(0.000000,700.000000) scale(0.100000,-0.100000)"
fill="#000000" stroke="none">
<path d="M3284 6925 c-115 -29 -224 -81 -316 -150 -40 -30 -612 -594 -1276
-1257 -1471 -1471 -1441 -1441 -1485 -1506 -36 -53 -105 -189 -112 -220 -2 -9
-10 -42 -19 -72 -8 -30 -17 -73 -20 -95 -8 -49 -8 -200 -1 -240 3 -16 10 -53
15 -81 14 -81 74 -218 134 -307 45 -67 296 -323 1371 -1397 724 -723 1322
-1320 1328 -1326 41 -37 148 -108 205 -135 297 -140 620 -119 892 59 72 48
283 254 1403 1372 725 723 1340 1344 1368 1380 88 116 155 268 176 398 9 57
10 230 1 292 -20 139 -94 307 -188 422 -63 78 -2625 2639 -2700 2700 -55 44
-157 100 -241 133 -151 60 -369 72 -535 30z m377 -1054 c31 -12 76 -34 100
-51 44 -29 1949 -1925 2014 -2004 88 -107 120 -263 84 -401 -31 -114 -25 -108
-1063 -1145 -545 -544 -1002 -998 -1016 -1008 -151 -116 -390 -116 -540 0 -37
28 -1967 1957 -2000 1998 -127 161 -125 396 6 555 43 53 1952 1961 1994 1993
112 86 291 113 421 63z"/>
</g>
</svg>
