<?xml version="1.0" standalone="no"?>
<!DOCTYPE svg PUBLIC "-//W3C//DTD SVG 20010904//EN"
 "http://www.w3.org/TR/2001/REC-SVG-20010904/DTD/svg10.dtd">
<svg version="1.0" xmlns="http://www.w3.org/2000/svg"
 width="808.000000pt" height="808.000000pt" viewBox="0 0 808.000000 808.000000"
 preserveAspectRatio="xMidYMid meet">
<metadata>
Created by potrace 1.11, written by Peter Selinger 2001-2013
</metadata>
<g transform="translate(0.000000,808.000000) scale(0.100000,-0.100000)"
fill="#000000" stroke="none">
<path d="M3957 8024 c-2 -2 -30 -6 -64 -8 -49 -5 -118 -24 -278 -80 -26 -8
-50 -20 -55 -26 -3 -3 -26 -17 -53 -30 -26 -14 -58 -34 -71 -45 -13 -11 -44
-36 -67 -55 -61 -49 -3023 -3012 -3085 -3085 -27 -33 -62 -78 -76 -100 -35
-54 -99 -175 -93 -175 3 0 -1 -12 -9 -27 -32 -64 -71 -279 -69 -383 5 -209 77
-426 201 -600 54 -77 3075 -3101 3169 -3173 34 -26 66 -47 71 -47 6 0 12 -4
14 -8 9 -24 214 -111 308 -132 138 -30 347 -33 455 -6 11 3 38 10 60 15 98 24
331 139 342 169 3 6 10 12 15 12 5 0 26 15 46 33 19 17 720 716 1557 1552 925
925 1539 1546 1568 1586 92 130 163 298 182 434 3 22 8 51 11 63 5 26 5 175 0
232 -3 29 -25 141 -31 160 -1 3 -6 20 -10 38 -4 18 -12 35 -16 38 -5 3 -9 13
-9 22 0 21 -71 160 -113 222 -17 24 -49 64 -72 89 -48 53 -3006 3011 -3061
3062 -78 71 -226 159 -322 190 -20 6 -41 14 -47 18 -5 3 -14 6 -20 7 -5 1 -46
9 -90 19 -68 14 -279 28 -288 19z m133 -1224 c0 -3 17 -6 38 -7 30 -2 63 -7
80 -12 1 -1 3 0 5 1 4 3 122 -65 154 -90 31 -23 2238 -2226 2296 -2291 15 -17
27 -35 27 -41 0 -5 4 -10 8 -10 7 0 36 -57 62 -125 30 -75 32 -203 6 -299 -23
-82 -62 -152 -121 -214 -113 -121 -2214 -2219 -2265 -2261 -77 -66 -138 -95
-240 -118 -39 -8 -170 -4 -210 7 -25 7 -46 11 -48 11 -1 -1 -35 15 -75 36 -67
35 -150 115 -1222 1188 -633 632 -1163 1167 -1178 1188 -30 40 -72 129 -83
174 -4 16 -8 71 -9 123 -3 112 21 197 81 289 23 34 487 506 1188 1207 1002
1002 1159 1155 1211 1181 69 35 113 50 170 59 22 3 41 7 42 7 4 5 83 1 83 -3z"/>
<path d="M4103 6219 c-50 -18 -47 87 -48 -2146 l0 -2091 24 -26 c30 -32 69
-33 107 -3 54 41 2049 2047 2062 2072 15 30 11 97 -9 122 -8 9 -473 477 -1034
1040 -720 722 -1029 1026 -1050 1032 -17 4 -40 5 -52 0z"/>
</g>
</svg>
