<svg width="232" height="145" viewBox="0 0 232 145" fill="none" xmlns="http://www.w3.org/2000/svg">
<circle cx="91" cy="73" r="20" fill="#CBCBCB"/>
<path fill-rule="evenodd" clip-rule="evenodd" d="M96.5 67.5C96.5 70.5376 94.0376 73 91 73C87.9624 73 85.5 70.5376 85.5 67.5C85.5 64.4624 87.9624 62 91 62C94.0376 62 96.5 64.4624 96.5 67.5ZM82 81C82 77.7 84.7 75 88 75H94C97.3 75 100 77.7 100 81V84H82V81Z" fill="#F6F6F6"/>
<circle cx="140" cy="73" r="20" fill="#CBCBCB"/>
<path d="M129.7 68.2H133.564C133.965 68.2 134.343 68.27 134.698 68.41C135.053 68.5407 135.361 68.7227 135.622 68.956C135.883 69.1893 136.089 69.4647 136.238 69.782C136.387 70.0993 136.462 70.44 136.462 70.804C136.462 71.2053 136.359 71.5787 136.154 71.924C135.958 72.26 135.692 72.54 135.356 72.764C135.879 72.9787 136.299 73.3007 136.616 73.73C136.943 74.1593 137.106 74.654 137.106 75.214C137.106 75.606 137.027 75.97 136.868 76.306C136.719 76.642 136.509 76.936 136.238 77.188C135.967 77.44 135.65 77.6407 135.286 77.79C134.931 77.93 134.544 78 134.124 78H129.7V68.2ZM131.59 69.782V72.19H133.382C133.737 72.19 134.021 72.0733 134.236 71.84C134.451 71.5973 134.558 71.3127 134.558 70.986C134.558 70.6407 134.451 70.356 134.236 70.132C134.021 69.8987 133.737 69.782 133.382 69.782H131.59ZM133.802 76.418C134.222 76.418 134.558 76.292 134.81 76.04C135.062 75.788 135.188 75.466 135.188 75.074C135.188 74.6913 135.062 74.3693 134.81 74.108C134.558 73.8467 134.222 73.716 133.802 73.716H131.59V76.418H133.802ZM147.275 75.27L149.081 68.2H151.041L148.255 78H146.351L144.083 71.056L141.801 78H139.897L137.111 68.2H139.141L140.947 75.284L143.271 68.2H144.951L147.275 75.27Z" fill="#F6F6F6"/>
</svg>
