<svg width="232" height="145" viewBox="0 0 232 145" fill="none" xmlns="http://www.w3.org/2000/svg">
<rect x="47" y="57" width="26" height="7" fill="#F6F6F6"/>
<rect x="75" y="57" width="26" height="7" fill="#F6F6F6"/>
<rect x="103" y="57" width="26" height="7" fill="#F6F6F6"/>
<rect x="131" y="57" width="26" height="7" fill="#F6F6F6"/>
<rect x="159" y="57" width="26" height="7" fill="#F6F6F6"/>
<rect x="47" y="66" width="26" height="7" fill="#F6F6F6"/>
<rect x="75" y="66" width="26" height="7" fill="#F6F6F6"/>
<rect x="103" y="66" width="26" height="7" fill="#F6F6F6"/>
<rect x="131" y="66" width="26" height="7" fill="#F6F6F6"/>
<rect x="159" y="66" width="26" height="7" fill="#F6F6F6"/>
<rect x="47" y="75" width="26" height="7" fill="#F6F6F6"/>
<rect x="75" y="75" width="26" height="7" fill="#F6F6F6"/>
<rect x="103" y="75" width="26" height="7" fill="#F6F6F6"/>
<rect x="131" y="75" width="26" height="7" fill="#F6F6F6"/>
<rect x="159" y="75" width="26" height="7" fill="#F6F6F6"/>
<rect x="47" y="84" width="26" height="7" fill="#F6F6F6"/>
<rect x="75" y="84" width="26" height="7" fill="#F6F6F6"/>
<rect x="103" y="84" width="26" height="7" fill="#F6F6F6"/>
<rect x="131" y="84" width="26" height="7" fill="#F6F6F6"/>
<rect x="159" y="84" width="26" height="7" fill="#F6F6F6"/>
<rect x="47" y="93" width="26" height="7" fill="#F6F6F6"/>
<rect x="75" y="93" width="26" height="7" fill="#F6F6F6"/>
<rect x="103" y="93" width="26" height="7" fill="#F6F6F6"/>
<rect x="131" y="93" width="26" height="7" fill="#F6F6F6"/>
<rect x="159" y="93" width="26" height="7" fill="#F6F6F6"/>
<rect x="47" y="45" width="26" height="10" fill="#E2E2E2"/>
<rect x="75" y="45" width="26" height="10" fill="#E2E2E2"/>
<rect x="103" y="45" width="26" height="10" fill="#E2E2E2"/>
<rect x="131" y="45" width="26" height="10" fill="#E2E2E2"/>
<rect x="159" y="45" width="26" height="10" fill="#E2E2E2"/>
</svg>
