<svg width="232" height="145" viewBox="0 0 232 145" fill="none" xmlns="http://www.w3.org/2000/svg">
<rect x="62" y="49" width="108" height="77" fill="#F6F6F6"/>
<rect x="62" y="18" width="108" height="31" fill="#CBCBCB"/>
<rect x="71" y="107" width="8" height="8" fill="#E2E2E2"/>
<rect x="91" y="107" width="8" height="8" fill="#E2E2E2"/>
<rect x="112" y="107" width="8" height="8" fill="#E2E2E2"/>
<rect x="71" y="59" width="8" height="8" fill="#E2E2E2"/>
<rect x="91" y="59" width="8" height="8" fill="#E2E2E2"/>
<rect x="112" y="59" width="8" height="8" fill="#E2E2E2"/>
<rect x="132" y="59" width="8" height="8" fill="#E2E2E2"/>
<rect x="153" y="59" width="8" height="8" fill="#E2E2E2"/>
<rect x="71" y="75" width="8" height="8" fill="#E2E2E2"/>
<rect x="91" y="75" width="8" height="8" fill="#E2E2E2"/>
<rect x="112" y="75" width="8" height="8" fill="#E2E2E2"/>
<rect x="132" y="75" width="8" height="8" fill="#E2E2E2"/>
<rect x="153" y="75" width="8" height="8" fill="#E2E2E2"/>
<rect x="71" y="91" width="8" height="8" fill="#E2E2E2"/>
<rect x="91" y="91" width="8" height="8" fill="#E2E2E2"/>
<rect x="112" y="91" width="8" height="8" fill="#E2E2E2"/>
<rect x="132" y="91" width="8" height="8" fill="#CBCBCB"/>
<rect x="153" y="91" width="8" height="8" fill="#E2E2E2"/>
<path d="M161 32.9231L155.75 38.0526L155.75 27.7935L161 32.9231Z" fill="#F6F6F6"/>
<path d="M71 32.9231L76.25 27.7935L76.25 38.0526L71 32.9231Z" fill="#F6F6F6"/>
</svg>
