<svg width="232" height="145" viewBox="0 0 232 145" fill="none" xmlns="http://www.w3.org/2000/svg">
<path fill-rule="evenodd" clip-rule="evenodd" d="M146 82.5789C146 80.6023 147.602 79 149.579 79V79C151.556 79 153.158 80.6023 153.158 82.5789V82.5789V82.5789C153.158 84.5555 151.556 86.1579 149.579 86.1579V86.1579C147.602 86.1579 146 84.5555 146 82.5789V82.5789Z" fill="#E2E2E2"/>
<rect width="68" height="21" transform="translate(78 58)" fill="#E2E2E2"/>
<g clip-path="url(#clip0)">
<path d="M90.9511 63.7612C89.7927 63.7612 88.9503 64.393 88.3184 65.0775C87.6866 64.4457 86.8441 63.7612 85.6858 63.7612C83.8429 63.7612 82.5265 65.2881 82.5265 67.1837C82.5265 68.1314 82.8951 68.9739 83.5796 69.5531L88.3184 74.0286L93.0573 69.5531C93.6891 68.9212 94.1103 68.1314 94.1103 67.1837C94.1103 65.2881 92.794 63.7612 90.9511 63.7612Z" fill="#CBCBCB"/>
</g>
<rect x="98.6369" y="65.5" width="43" height="6" fill="#CBCBCB"/>
<defs>
<clipPath id="clip0">
<rect width="12.6369" height="12.6369" fill="white" transform="translate(82 62.1815)"/>
</clipPath>
</defs>
</svg>
