<svg width="232" height="145" viewBox="0 0 232 145" fill="none" xmlns="http://www.w3.org/2000/svg">
<path d="M144.618 81.6522L140.418 77.4435C141.468 75.913 142.136 74.0957 142.136 72.087C142.136 67.1131 138.032 63 133.068 63C128.105 63 124 67.1131 124 72.087C124 77.0609 128.105 81.174 133.068 81.174C135.073 81.174 136.886 80.5043 138.414 79.4522L142.614 83.6608L144.618 81.6522ZM126.864 72.1826C126.864 68.7391 129.632 65.9652 133.068 65.9652C136.505 65.9652 139.273 68.7391 139.273 72.1826C139.273 75.6261 136.505 78.4 133.068 78.4C129.632 78.4 126.864 75.6261 126.864 72.1826Z" fill="#CBCBCB"/>
<path d="M98.1 81.2L90 73.2L92.1999 71L98.1 77L110 65L112.2 67.2L98.1 81.2Z" fill="#CBCBCB"/>
<path d="M175.2 66.2L173 64L166.1 71L159.2 64L157 66.2L164 73.1L157 80L159.2 82.2L166.1 75.2L173 82.2L175.2 80L168.2 73.1L175.2 66.2Z" fill="#CBCBCB"/>
<path d="M78 71.5H68.5V62H65.5V71.5H56V74.5H65.5V84H68.5V74.5H78V71.5Z" fill="#CBCBCB"/>
</svg>
