<svg width="232" height="145" viewBox="0 0 232 145" fill="none" xmlns="http://www.w3.org/2000/svg">
<path opacity="0.5" fill-rule="evenodd" clip-rule="evenodd" d="M116 94C127.598 94 137 84.598 137 73C137 61.402 127.598 52 116 52C104.402 52 95 61.402 95 73C95 84.598 104.402 94 116 94Z" fill="#E2E2E2"/>
<path fill-rule="evenodd" clip-rule="evenodd" d="M116 76.15C117.74 76.15 119.15 74.7397 119.15 73C119.15 71.2603 117.74 69.85 116 69.85C114.26 69.85 112.85 71.2603 112.85 73C112.85 74.7397 114.26 76.15 116 76.15Z" fill="#CBCBCB"/>
<path fill-rule="evenodd" clip-rule="evenodd" d="M116 62.5L113.113 65.65L116 65.125L118.888 65.65L116 62.5Z" fill="#CBCBCB"/>
</svg>
