<svg width="232" height="145" viewBox="0 0 232 145" fill="none" xmlns="http://www.w3.org/2000/svg">
<path d="M67 62L69.4697 69.6008H77.4616L70.996 74.2984L73.4656 81.8992L67 77.2016L60.5344 81.8992L63.004 74.2984L56.5384 69.6008H64.5303L67 62Z" fill="#CBCBCB"/>
<path d="M91 62L93.4697 69.6008H101.462L94.996 74.2984L97.4656 81.8992L91 77.2016L84.5344 81.8992L87.004 74.2984L80.5384 69.6008H88.5303L91 62Z" fill="#CBCBCB"/>
<path d="M115 62L117.47 69.6008H125.462L118.996 74.2984L121.466 81.8992L115 77.2016L108.534 81.8992L111.004 74.2984L104.538 69.6008H112.53L115 62Z" fill="#CBCBCB"/>
<path d="M140 62L142.47 69.6008H150.462L143.996 74.2984L146.466 81.8992L140 77.2016L133.534 81.8992L136.004 74.2984L129.538 69.6008H137.53L140 62Z" fill="#CBCBCB"/>
<path d="M165 62L167.47 69.6008H175.462L168.996 74.2984L171.466 81.8992L165 77.2016L158.534 81.8992L161.004 74.2984L154.538 69.6008H162.53L165 62Z" fill="#E2E2E2"/>
</svg>
