<svg width="232" height="145" viewBox="0 0 232 145" fill="none" xmlns="http://www.w3.org/2000/svg">
<circle cx="116" cy="73" r="15.5" stroke="#F6F6F6" stroke-width="3"/>
<mask id="path-3-inside-1" fill="white">
<path d="M116 57.4969C116 56.6702 116.671 55.9932 117.495 56.0659C119.928 56.2806 122.292 57.0177 124.424 58.2337C126.99 59.6976 129.13 61.8048 130.634 64.3479C132.137 66.8909 132.952 69.7818 132.998 72.7357C133.036 75.1894 132.543 77.6162 131.558 79.8513C131.225 80.6079 130.308 80.87 129.584 80.4716C128.86 80.0732 128.603 79.1653 128.922 78.4026C129.664 76.6285 130.035 74.7155 130.005 72.7822C129.967 70.3485 129.295 67.9667 128.057 65.8715C126.818 63.7763 125.054 62.0401 122.94 60.8341C121.261 59.876 119.406 59.2788 117.494 59.0736C116.672 58.9855 116 58.3236 116 57.4969Z"/>
</mask>
<path d="M116 57.4969C116 56.6702 116.671 55.9932 117.495 56.0659C119.928 56.2806 122.292 57.0177 124.424 58.2337C126.99 59.6976 129.13 61.8048 130.634 64.3479C132.137 66.8909 132.952 69.7818 132.998 72.7357C133.036 75.1894 132.543 77.6162 131.558 79.8513C131.225 80.6079 130.308 80.87 129.584 80.4716C128.86 80.0732 128.603 79.1653 128.922 78.4026C129.664 76.6285 130.035 74.7155 130.005 72.7822C129.967 70.3485 129.295 67.9667 128.057 65.8715C126.818 63.7763 125.054 62.0401 122.94 60.8341C121.261 59.876 119.406 59.2788 117.494 59.0736C116.672 58.9855 116 58.3236 116 57.4969Z" stroke="#CBCBCB" stroke-width="6" mask="url(#path-3-inside-1)"/>
</svg>
