<svg width="232" height="145" viewBox="0 0 232 145" fill="none" xmlns="http://www.w3.org/2000/svg">
<rect x="47" y="58" width="54" height="22" fill="#F6F6F6"/>
<rect x="47" y="82" width="54" height="22" fill="#F6F6F6"/>
<rect x="103" y="58" width="54" height="10" fill="#F6F6F6"/>
<rect x="159" y="58" width="26" height="10" fill="#F6F6F6"/>
<rect x="103" y="70" width="26" height="10" fill="#F6F6F6"/>
<rect x="131" y="70" width="26" height="10" fill="#F6F6F6"/>
<rect x="159" y="70" width="26" height="10" fill="#F6F6F6"/>
<rect x="103" y="82" width="54" height="10" fill="#F6F6F6"/>
<rect x="159" y="82" width="26" height="10" fill="#F6F6F6"/>
<rect x="103" y="94" width="26" height="10" fill="#F6F6F6"/>
<rect x="131" y="94" width="26" height="10" fill="#F6F6F6"/>
<rect x="159" y="94" width="26" height="10" fill="#F6F6F6"/>
<rect x="47" y="46" width="54" height="10" fill="#E2E2E2"/>
<rect x="103" y="46" width="26" height="10" fill="#E2E2E2"/>
<rect x="131" y="46" width="26" height="10" fill="#E2E2E2"/>
<rect x="159" y="46" width="26" height="10" fill="#E2E2E2"/>
</svg>
