<svg width="232" height="145" viewBox="0 0 232 145" fill="none" xmlns="http://www.w3.org/2000/svg">
<rect x="61" y="65" width="50" height="16" rx="8" fill="#F6F6F6"/>
<path d="M103.64 70.2401L102.76 69.3601L100 72.1601L97.24 69.3601L96.36 70.2401L99.16 73.0001L96.36 75.7601L97.24 76.6401L100 73.8401L102.76 76.6401L103.64 75.7601L100.84 73.0001L103.64 70.2401Z" fill="#CBCBCB"/>
<rect x="121" y="65" width="50" height="16" rx="8" fill="#CBCBCB"/>
<path d="M163.64 70.2401L162.76 69.3601L160 72.1601L157.24 69.3601L156.36 70.2401L159.16 73.0001L156.36 75.7601L157.24 76.6401L160 73.8401L162.76 76.6401L163.64 75.7601L160.84 73.0001L163.64 70.2401Z" fill="#F6F6F6"/>
</svg>
