<svg width="232" height="145" viewBox="0 0 232 145" fill="none" xmlns="http://www.w3.org/2000/svg">
<rect width="14" height="14" transform="matrix(0.00243665 -0.999997 -0.999997 -0.00243665 122.912 98.1218)" fill="#F6F6F6"/>
<rect width="14" height="14" transform="matrix(0.00243665 -0.999997 -0.999997 -0.00243665 104.912 80.0342)" fill="#F6F6F6"/>
<rect width="14" height="14" transform="matrix(0.00243665 -0.999997 -0.999997 -0.00243665 122.956 80.1218)" fill="#E2E2E2"/>
<rect width="14" height="14" transform="matrix(0.00243665 -0.999997 -0.999997 -0.00243665 123 62.1218)" fill="#CBCBCB"/>
<rect width="14" height="14" transform="matrix(0.00243665 -0.999997 -0.999997 -0.00243665 140.912 80.0342)" fill="#CBCBCB"/>
<rect width="14" height="14" transform="matrix(0.00243665 -0.999997 -0.999997 -0.00243665 87 62.0342)" fill="#F6F6F6"/>
<rect width="14" height="14" transform="matrix(0.00243665 -0.999997 -0.999997 -0.00243665 105 62.0781)" fill="#E2E2E2"/>
<rect width="14" height="14" transform="matrix(0.00243665 -0.999997 -0.999997 -0.00243665 140.912 98.1655)" fill="#E2E2E2"/>
<rect width="14" height="14" transform="matrix(0.00243665 -0.999997 -0.999997 -0.00243665 158.912 98.2095)" fill="#CBCBCB"/>
</svg>
