<svg width="382" height="131" viewBox="0 0 382 131" fill="none" xmlns="http://www.w3.org/2000/svg">
<path d="M381.99 0H0V131H381.99V0Z" fill="#FFE3AC"/>
<path d="M240.95 106.9L248.05 104.22C237.17 75.31 245.39 44.06 245.39 44.06L240.41 36.8C234.28 48.8 227.82 72.04 240.95 106.9Z" fill="#3D6213"/>
<path d="M239.45 64.26L216.9 74.2C212.23 76.26 206.93 76.42 202.15 74.64L194.37 71.75C194.36 71.75 215.98 59.23 239.45 64.26Z" fill="#4E7C19"/>
<path d="M212.83 64.87C220.48 63.09 229.81 62.19 239.46 64.26L216.9 74.2C212.74 76.04 208.09 76.35 203.73 75.14C208.8 73.03 211.71 67.45 212.83 64.87Z" fill="#3D6213"/>
<path d="M239.45 64.26C212.13 72.3 207.18 68.03 195.4 53.59C221.68 45.86 239.45 64.26 239.45 64.26Z" fill="#3D6213"/>
<path d="M239.45 64.26C260.73 57.99 262.18 53.1 263.81 38.68C243.34 44.7 239.45 64.26 239.45 64.26Z" fill="#3D6213"/>
<path d="M239.45 64.26L258.79 62.83C266.26 62.28 273.17 58.7 277.95 52.93C264.02 47.96 248.48 52.54 239.45 64.26Z" fill="#3D6213"/>
<path d="M302.06 131H197.62C192.87 125 189.15 118.59 187.17 111.87C182.35 95.48 191.79 78.29 208.17 73.46L270.74 55.04C287.11 50.23 304.35 59.56 309.16 75.95C314 92.49 309.02 113.2 302.06 131Z" fill="#870F00"/>
<path d="M244.5 98.1601H259.82L277.95 88.7201L267.64 57.0001C267.64 57.0101 244.5 63.2301 244.5 98.1601Z" fill="#5A0A00"/>
<path d="M318.39 88.95C318.96 88.95 319.51 88.72 319.92 88.31C320.33 87.9 320.56 87.36 320.56 86.78C320.56 86.64 320.55 86.5 320.52 86.36C320.49 86.22 320.45 86.08 320.4 85.95C320.35 85.82 320.27 85.7 320.19 85.58C320.11 85.46 320.03 85.35 319.92 85.24C319.82 85.14 319.71 85.06 319.6 84.98C319.48 84.89 319.35 84.83 319.22 84.77C319.09 84.72 318.96 84.67 318.82 84.65C318.54 84.6 318.26 84.59 317.97 84.65C317.83 84.67 317.69 84.72 317.56 84.77C317.43 84.82 317.31 84.89 317.19 84.98C317.07 85.06 316.96 85.14 316.87 85.24C316.76 85.35 316.67 85.46 316.6 85.58C316.51 85.7 316.45 85.82 316.39 85.95C316.33 86.08 316.29 86.22 316.27 86.36C316.24 86.5 316.23 86.64 316.23 86.78C316.23 87.36 316.46 87.91 316.87 88.31C317.26 88.72 317.81 88.95 318.39 88.95Z" fill="#BC8B2C"/>
<path d="M202.28 85.89C202.85 85.89 203.4 85.66 203.81 85.25C203.91 85.14 204 85.03 204.08 84.91C204.16 84.8 204.22 84.67 204.27 84.54C204.32 84.41 204.37 84.27 204.4 84.14C204.42 84 204.44 83.86 204.44 83.71C204.44 83.15 204.2 82.58 203.8 82.18C203.29 81.67 202.54 81.44 201.84 81.58C201.71 81.61 201.57 81.66 201.44 81.71C201.31 81.76 201.18 81.83 201.07 81.9C200.95 81.98 200.83 82.07 200.73 82.17C200.33 82.57 200.09 83.14 200.09 83.7C200.09 83.84 200.11 83.99 200.13 84.13C200.16 84.26 200.21 84.4 200.26 84.53C200.32 84.66 200.38 84.78 200.46 84.9C200.54 85.02 200.63 85.13 200.73 85.24C201.15 85.66 201.69 85.89 202.28 85.89Z" fill="#BC8B2C"/>
<path d="M215.48 82.59C214.5 82.59 213.63 81.93 213.38 80.94C213.09 79.78 213.8 78.61 214.96 78.31C216.12 78.02 217.3 78.72 217.58 79.89C217.87 81.05 217.17 82.22 216.01 82.52C215.83 82.57 215.65 82.59 215.48 82.59ZM228.69 79.3C227.72 79.3 226.84 78.64 226.59 77.65C226.31 76.49 227.01 75.31 228.17 75.02C229.33 74.73 230.51 75.43 230.79 76.59C231.08 77.76 230.38 78.93 229.22 79.23C229.04 79.28 228.86 79.3 228.69 79.3ZM241.91 76C240.94 76 240.06 75.34 239.81 74.35C239.53 73.19 240.23 72.02 241.39 71.72C242.55 71.43 243.73 72.14 244.01 73.3C244.3 74.46 243.6 75.63 242.43 75.93C242.25 75.98 242.08 76 241.91 76ZM255.12 72.71C254.14 72.71 253.27 72.05 253.02 71.06C252.73 69.9 253.43 68.72 254.6 68.43C255.76 68.14 256.94 68.84 257.22 70C257.51 71.17 256.81 72.34 255.64 72.64C255.47 72.69 255.29 72.71 255.12 72.71ZM268.33 69.41C267.36 69.41 266.48 68.76 266.23 67.77C265.94 66.6 266.64 65.43 267.81 65.13C268.97 64.85 270.14 65.55 270.43 66.71C270.72 67.87 270.02 69.05 268.85 69.34C268.68 69.39 268.51 69.41 268.33 69.41ZM281.55 66.13C280.57 66.13 279.69 65.47 279.45 64.48C279.16 63.32 279.86 62.14 281.03 61.85C282.19 61.56 283.36 62.27 283.65 63.42C283.93 64.59 283.23 65.76 282.07 66.06C281.89 66.11 281.72 66.13 281.55 66.13Z" fill="#BC8B2C"/>
<path d="M199.01 102.85C199.6 102.85 200.14 102.62 200.55 102.21C200.96 101.81 201.19 101.25 201.19 100.68C201.19 100.1 200.95 99.54 200.55 99.15C200.04 98.64 199.29 98.4 198.59 98.55C198.46 98.57 198.32 98.61 198.19 98.67C198.06 98.72 197.93 98.79 197.82 98.88C197.7 98.96 197.58 99.04 197.48 99.15C197.08 99.54 196.84 100.1 196.84 100.68C196.84 101.25 197.07 101.8 197.48 102.21C197.59 102.31 197.7 102.4 197.82 102.48C197.93 102.56 198.06 102.63 198.19 102.69C198.32 102.74 198.45 102.79 198.59 102.81C198.73 102.84 198.87 102.85 199.01 102.85Z" fill="#BC8B2C"/>
<path d="M211.87 99.58C210.91 99.58 210.03 98.93 209.77 97.94C209.48 96.78 210.18 95.6 211.34 95.3C212.5 95.01 213.68 95.71 213.97 96.87C214.27 98.03 213.57 99.21 212.41 99.51C212.23 99.56 212.05 99.58 211.87 99.58ZM224.72 96.31C223.75 96.31 222.87 95.66 222.62 94.67C222.33 93.51 223.03 92.34 224.19 92.04C225.35 91.74 226.53 92.44 226.82 93.6C227.11 94.76 226.42 95.94 225.25 96.24C225.08 96.29 224.9 96.31 224.72 96.31ZM237.58 93.06C236.62 93.06 235.73 92.4 235.48 91.42C235.19 90.26 235.89 89.08 237.05 88.78C238.21 88.49 239.39 89.18 239.68 90.34C239.97 91.5 239.27 92.68 238.11 92.98C237.94 93.03 237.75 93.06 237.58 93.06ZM250.44 89.79C249.48 89.79 248.59 89.14 248.34 88.15C248.05 86.99 248.75 85.81 249.91 85.51C251.07 85.22 252.25 85.92 252.54 87.08C252.83 88.24 252.13 89.42 250.97 89.72C250.79 89.77 250.61 89.79 250.44 89.79ZM263.29 86.53C262.32 86.53 261.44 85.88 261.19 84.89C260.9 83.73 261.6 82.55 262.76 82.25C263.92 81.96 265.1 82.66 265.39 83.82C265.68 84.98 264.98 86.16 263.82 86.46C263.65 86.5 263.47 86.53 263.29 86.53ZM276.15 83.26C275.18 83.26 274.3 82.61 274.05 81.62C273.76 80.46 274.46 79.29 275.62 78.98C276.78 78.69 277.96 79.39 278.25 80.55C278.54 81.71 277.84 82.89 276.68 83.19C276.51 83.24 276.32 83.26 276.15 83.26Z" fill="#BC8B2C"/>
<path d="M314.72 73.47C315.29 73.47 315.84 73.24 316.25 72.84C316.35 72.73 316.44 72.62 316.52 72.5C316.6 72.38 316.67 72.26 316.73 72.13C316.78 72 316.82 71.86 316.85 71.73C316.87 71.59 316.89 71.45 316.89 71.3C316.89 71.16 316.87 71.02 316.85 70.88C316.82 70.74 316.77 70.61 316.72 70.48C316.67 70.35 316.6 70.22 316.53 70.1C316.45 69.98 316.36 69.87 316.26 69.77C315.46 68.96 314.01 68.96 313.19 69.77C313.09 69.87 313.01 69.98 312.92 70.1C312.84 70.22 312.78 70.35 312.73 70.48C312.68 70.61 312.63 70.74 312.61 70.88C312.58 71.02 312.57 71.16 312.57 71.3C312.57 71.89 312.8 72.43 313.2 72.84C313.59 73.25 314.13 73.47 314.72 73.47Z" fill="#BC8B2C"/>
<path d="M239.45 64.26C232.04 39.04 221.56 35.53 211.27 35.73C217.05 53.81 223.46 68.97 239.45 64.26Z" fill="#4E7C19"/>
<path d="M235.86 54.17C237.12 57.07 238.33 60.41 239.46 64.26C227.46 67.79 220.86 60.15 215.87 48.48C220.69 53.59 229.84 57.02 235.86 54.17Z" fill="#3D6213"/>
<path d="M339.67 103.36C355.89 50.02 340.81 8.46998 340.16 6.72998L332.41 14.67C335.66 26.51 342.59 60.25 330.34 100.52L339.67 103.36Z" fill="#4E7C19"/>
<path d="M382 62.18C377.47 63.88 372.48 64.08 367.79 62.7L340.77 54.75C340.77 54.75 340.77 54.75 340.78 54.74C355.98 49.37 381.99 46.45 381.99 46.45L382 62.18Z" fill="#4E7C19"/>
<path d="M382 40.69V52.67C373.25 60.6 364.23 61.65 340.77 54.73C340.77 54.74 357.05 37.88 382 40.69Z" fill="#3D6213"/>
<path d="M340.77 54.74L340.15 54.91C325.71 58.92 310.44 52.25 303.55 38.93C303.55 38.93 322.32 28.25 340.77 54.74Z" fill="#4E7C19"/>
<path d="M340.77 54.74C316.45 47.58 314.8 41.99 312.94 25.5C336.32 32.39 340.77 54.74 340.77 54.74Z" fill="#3D6213"/>
<path d="M382 67.38V131H269.21C261.26 110.66 255.57 87 261.11 68.1C266.59 49.37 286.31 38.7 305.01 44.21L376.51 65.26C378.42 65.83 380.26 66.53 382 67.38Z" fill="#AB1300"/>
<path d="M382 67.38V131H345.35C353.28 120.9 359.99 109.73 363.4 98.15C368.71 80.11 362.85 62.39 350.38 57.57L367.79 62.69L376.51 65.26C378.42 65.83 380.26 66.53 382 67.38Z" fill="#E11900"/>
<path d="M378.23 107.55C378.52 107.55 378.8 107.49 379.07 107.39C379.34 107.29 379.57 107.12 379.77 106.91C380.18 106.5 380.4 105.96 380.4 105.38C380.4 105.24 380.39 105.1 380.37 104.96C380.34 104.82 380.29 104.68 380.24 104.55C380.19 104.42 380.12 104.3 380.04 104.18C379.95 104.06 379.87 103.95 379.77 103.84C379.66 103.74 379.55 103.66 379.43 103.58C379.31 103.49 379.19 103.43 379.06 103.37C378.93 103.32 378.79 103.27 378.65 103.25C378.38 103.19 378.09 103.19 377.8 103.25C377.66 103.27 377.53 103.31 377.4 103.37C377.27 103.42 377.14 103.49 377.02 103.58C376.9 103.66 376.79 103.74 376.69 103.84C376.59 103.95 376.5 104.06 376.42 104.18C376.34 104.3 376.28 104.42 376.23 104.55C376.18 104.68 376.13 104.82 376.1 104.96C376.08 105.1 376.06 105.24 376.06 105.38C376.06 105.97 376.29 106.51 376.7 106.91C376.91 107.12 377.14 107.28 377.4 107.39C377.66 107.5 377.95 107.55 378.23 107.55Z" fill="#BC8B2C"/>
<path d="M365.85 104.45C365.68 104.45 365.5 104.43 365.32 104.39C364.16 104.11 363.46 102.92 363.75 101.76C364.03 100.6 365.21 99.89 366.37 100.18C367.53 100.47 368.23 101.64 367.95 102.81C367.7 103.79 366.81 104.45 365.85 104.45ZM353.44 101.37C353.27 101.37 353.09 101.35 352.92 101.29C351.76 101.01 351.04 99.83 351.34 98.66C351.63 97.5 352.8 96.79 353.96 97.08C355.13 97.37 355.83 98.56 355.54 99.72C355.31 100.71 354.42 101.37 353.44 101.37ZM341.04 98.28C340.87 98.28 340.69 98.26 340.52 98.21C339.36 97.92 338.66 96.75 338.94 95.58C339.23 94.41 340.41 93.7 341.57 94C342.73 94.28 343.43 95.46 343.15 96.63C342.91 97.62 342.02 98.28 341.04 98.28ZM328.65 95.19C328.48 95.19 328.3 95.17 328.13 95.13C326.96 94.85 326.26 93.66 326.55 92.5C326.83 91.34 328.01 90.62 329.17 90.92C330.33 91.21 331.03 92.38 330.75 93.55C330.51 94.53 329.63 95.19 328.65 95.19ZM316.25 92.11C316.08 92.11 315.9 92.09 315.73 92.05C314.57 91.76 313.86 90.57 314.15 89.41C314.44 88.25 315.61 87.54 316.77 87.83C317.94 88.12 318.64 89.31 318.35 90.47C318.12 91.44 317.23 92.11 316.25 92.11ZM303.86 89.01C303.69 89.01 303.5 88.99 303.33 88.94C302.17 88.65 301.47 87.46 301.75 86.31C302.04 85.14 303.22 84.43 304.38 84.73C305.54 85.01 306.24 86.19 305.96 87.36C305.72 88.35 304.84 89.01 303.86 89.01ZM291.46 85.92C291.29 85.92 291.11 85.9 290.93 85.86C289.77 85.57 289.07 84.39 289.36 83.23C289.64 82.07 290.82 81.35 291.98 81.65C293.14 81.94 293.85 83.11 293.56 84.28C293.32 85.26 292.44 85.92 291.46 85.92ZM279.06 82.84C278.89 82.84 278.71 82.82 278.54 82.78C277.38 82.49 276.68 81.3 276.96 80.14C277.25 78.98 278.42 78.27 279.59 78.56C280.75 78.85 281.46 80.04 281.16 81.2C280.93 82.18 280.04 82.84 279.06 82.84Z" fill="#BC8B2C"/>
<path d="M266.67 79.75C266.81 79.75 266.95 79.73 267.09 79.71C267.22 79.68 267.36 79.64 267.49 79.59C267.62 79.54 267.75 79.46 267.86 79.38C267.98 79.3 268.09 79.22 268.2 79.11C268.41 78.9 268.56 78.66 268.67 78.4C268.79 78.14 268.84 77.86 268.84 77.58C268.84 77.44 268.82 77.29 268.8 77.16C268.77 77.02 268.72 76.88 268.67 76.75C268.62 76.62 268.55 76.5 268.48 76.38C268.39 76.26 268.31 76.15 268.21 76.04C268.11 75.94 267.99 75.86 267.87 75.77C267.76 75.69 267.63 75.63 267.5 75.57C267.37 75.52 267.23 75.47 267.1 75.45C266.4 75.31 265.64 75.54 265.14 76.04C265.04 76.15 264.96 76.26 264.87 76.38C264.79 76.5 264.73 76.62 264.68 76.75C264.63 76.88 264.58 77.02 264.55 77.16C264.53 77.29 264.51 77.44 264.51 77.58C264.51 77.86 264.57 78.14 264.68 78.4C264.79 78.66 264.94 78.9 265.15 79.11C265.26 79.22 265.37 79.3 265.49 79.38C265.61 79.46 265.73 79.53 265.86 79.59C265.99 79.64 266.12 79.68 266.26 79.71C266.38 79.72 266.52 79.75 266.67 79.75Z" fill="#BC8B2C"/>
<path d="M369.57 73.39C369.4 73.39 369.22 73.37 369.05 73.33C367.89 73.04 367.18 71.86 367.47 70.7C367.76 69.53 368.93 68.82 370.1 69.11C371.25 69.4 371.97 70.58 371.67 71.74C371.44 72.73 370.55 73.39 369.57 73.39ZM356.36 70.1C356.2 70.1 356.01 70.08 355.84 70.04C354.68 69.75 353.98 68.56 354.26 67.4C354.55 66.24 355.73 65.53 356.89 65.83C358.05 66.11 358.75 67.29 358.46 68.46C358.22 69.44 357.34 70.1 356.36 70.1ZM343.15 66.8C342.98 66.8 342.8 66.78 342.63 66.74C341.47 66.46 340.77 65.28 341.05 64.11C341.34 62.95 342.51 62.23 343.67 62.53C344.84 62.82 345.54 63.99 345.25 65.17C345.01 66.15 344.12 66.8 343.15 66.8ZM329.94 63.51C329.77 63.51 329.58 63.49 329.41 63.44C328.25 63.15 327.55 61.98 327.83 60.8C328.12 59.64 329.29 58.93 330.46 59.23C331.62 59.51 332.32 60.69 332.03 61.86C331.8 62.85 330.91 63.51 329.94 63.51ZM316.73 60.22C316.56 60.22 316.37 60.2 316.2 60.15C315.04 59.87 314.34 58.69 314.62 57.52C314.91 56.36 316.09 55.65 317.25 55.94C318.41 56.23 319.11 57.42 318.83 58.58C318.58 59.56 317.7 60.22 316.73 60.22ZM303.52 56.93C303.35 56.93 303.16 56.91 302.99 56.87C301.83 56.58 301.13 55.4 301.42 54.24C301.7 53.07 302.88 52.36 304.04 52.66C305.2 52.95 305.9 54.13 305.62 55.29C305.37 56.27 304.48 56.93 303.52 56.93Z" fill="#BC8B2C"/>
<path d="M290.3 53.63C290.87 53.63 291.42 53.41 291.83 53C292.24 52.59 292.47 52.05 292.47 51.47C292.47 50.9 292.23 50.33 291.83 49.93C291.73 49.83 291.61 49.74 291.51 49.66C291.39 49.58 291.26 49.52 291.13 49.47C291 49.42 290.86 49.37 290.73 49.35C290.45 49.29 290.16 49.29 289.87 49.35C289.74 49.37 289.6 49.42 289.47 49.47C289.34 49.52 289.22 49.59 289.1 49.66C288.98 49.74 288.86 49.83 288.76 49.93C288.36 50.33 288.13 50.9 288.13 51.47C288.13 52.05 288.35 52.59 288.76 53C288.87 53.1 288.98 53.19 289.1 53.27C289.22 53.35 289.34 53.41 289.47 53.46C289.6 53.52 289.74 53.56 289.87 53.59C290.01 53.62 290.15 53.63 290.3 53.63Z" fill="#BC8B2C"/>
<path d="M373.38 90.49C373.2 90.49 373.02 90.47 372.85 90.43C371.69 90.14 370.99 88.96 371.27 87.8C371.56 86.63 372.74 85.92 373.9 86.22C375.06 86.51 375.77 87.68 375.48 88.85C375.23 89.83 374.34 90.49 373.38 90.49ZM360.71 87.33C360.54 87.33 360.36 87.31 360.19 87.27C359.02 86.98 358.31 85.81 358.61 84.64C358.89 83.47 360.07 82.76 361.23 83.06C362.39 83.34 363.1 84.52 362.81 85.69C362.56 86.67 361.68 87.33 360.71 87.33ZM348.04 84.17C347.87 84.17 347.69 84.15 347.52 84.1C346.35 83.82 345.65 82.64 345.94 81.47C346.23 80.31 347.4 79.59 348.56 79.89C349.73 80.18 350.44 81.35 350.14 82.52C349.9 83.51 349.01 84.17 348.04 84.17ZM335.37 81.02C335.2 81.02 335.01 81 334.84 80.95C333.68 80.67 332.97 79.49 333.26 78.32C333.55 77.16 334.73 76.44 335.89 76.74C337.05 77.03 337.75 78.21 337.47 79.37C337.23 80.35 336.34 81.02 335.37 81.02ZM322.7 77.86C322.53 77.86 322.35 77.84 322.18 77.79C321.01 77.51 320.31 76.33 320.6 75.16C320.88 74 322.06 73.28 323.22 73.58C324.38 73.87 325.1 75.05 324.8 76.21C324.56 77.2 323.68 77.86 322.7 77.86ZM310.03 74.7C309.86 74.7 309.68 74.68 309.51 74.65C308.35 74.36 307.63 73.17 307.93 72.01C308.22 70.85 309.39 70.14 310.55 70.43C311.72 70.72 312.42 71.91 312.13 73.07C311.9 74.05 311.01 74.7 310.03 74.7ZM297.37 71.54C297.2 71.54 297.02 71.53 296.84 71.48C295.68 71.2 294.98 70.01 295.27 68.85C295.55 67.69 296.73 66.98 297.89 67.27C299.05 67.56 299.76 68.75 299.47 69.91C299.22 70.89 298.34 71.54 297.37 71.54ZM284.7 68.4C284.53 68.4 284.35 68.38 284.18 68.33C283.01 68.04 282.3 66.85 282.6 65.69C282.88 64.53 284.06 63.82 285.22 64.12C286.38 64.4 287.08 65.58 286.8 66.75C286.55 67.74 285.67 68.4 284.7 68.4Z" fill="#BC8B2C"/>
<path d="M272.03 65.24C272.17 65.24 272.31 65.22 272.45 65.2C272.59 65.17 272.73 65.13 272.86 65.08C272.99 65.03 273.11 64.95 273.23 64.87C273.35 64.79 273.46 64.7 273.56 64.6C273.97 64.2 274.2 63.65 274.2 63.07C274.2 62.93 274.19 62.78 274.16 62.64C274.13 62.51 274.09 62.37 274.04 62.24C273.99 62.11 273.91 61.98 273.83 61.87C273.75 61.75 273.67 61.63 273.56 61.53C273.46 61.43 273.35 61.35 273.23 61.26C273.11 61.18 272.99 61.12 272.86 61.06C272.72 61.01 272.59 60.96 272.45 60.94C272.17 60.87 271.89 60.87 271.6 60.94C271.46 60.96 271.33 61 271.2 61.06C271.06 61.12 270.94 61.18 270.82 61.26C270.7 61.35 270.59 61.43 270.5 61.53C270.39 61.63 270.31 61.75 270.23 61.87C270.15 61.98 270.08 62.11 270.02 62.24C269.98 62.37 269.93 62.51 269.9 62.64C269.88 62.78 269.86 62.93 269.86 63.07C269.86 63.65 270.09 64.2 270.5 64.6C270.71 64.81 270.93 64.97 271.21 65.08C271.46 65.19 271.73 65.24 272.03 65.24Z" fill="#BC8B2C"/>
<path d="M372.84 122.66C372.99 122.66 373.13 122.65 373.27 122.62C373.4 122.6 373.54 122.55 373.67 122.5C373.8 122.45 373.93 122.38 374.04 122.31C374.16 122.23 374.28 122.14 374.38 122.04C374.79 121.63 375.01 121.09 375.01 120.5C375.01 120.36 375 120.22 374.98 120.08C374.95 119.94 374.9 119.81 374.85 119.68C374.8 119.55 374.73 119.42 374.66 119.3C374.58 119.18 374.49 119.07 374.39 118.97C374.29 118.87 374.18 118.78 374.07 118.7C373.95 118.62 373.82 118.56 373.69 118.51C373.56 118.46 373.42 118.41 373.29 118.38C372.58 118.24 371.83 118.47 371.33 118.98C371.23 119.08 371.15 119.19 371.06 119.31C370.98 119.43 370.92 119.56 370.87 119.69C370.81 119.82 370.77 119.95 370.75 120.09C370.72 120.23 370.71 120.37 370.71 120.51C370.71 121.1 370.93 121.64 371.34 122.05C371.72 122.43 372.26 122.66 372.84 122.66Z" fill="#BC8B2C"/>
<path d="M359.48 119.33C359.31 119.33 359.13 119.31 358.96 119.27C357.8 118.99 357.08 117.8 357.38 116.64C357.67 115.48 358.84 114.77 360.01 115.06C361.17 115.35 361.87 116.54 361.58 117.7C361.35 118.68 360.46 119.33 359.48 119.33ZM346.13 116.01C345.96 116.01 345.78 115.99 345.61 115.94C344.44 115.65 343.73 114.46 344.03 113.3C344.31 112.14 345.49 111.43 346.65 111.73C347.81 112.01 348.52 113.2 348.23 114.36C347.98 115.35 347.1 116.01 346.13 116.01ZM332.77 112.68C332.6 112.68 332.42 112.66 332.24 112.62C331.08 112.33 330.38 111.15 330.66 109.99C330.95 108.82 332.13 108.11 333.29 108.41C334.45 108.7 335.16 109.87 334.87 111.04C334.63 112.02 333.75 112.68 332.77 112.68ZM319.41 109.35C319.24 109.35 319.06 109.33 318.89 109.29C317.73 109.01 317.03 107.83 317.31 106.66C317.6 105.5 318.78 104.78 319.93 105.08C321.1 105.37 321.81 106.54 321.51 107.71C321.27 108.69 320.38 109.35 319.41 109.35ZM306.05 106.02C305.88 106.02 305.7 106 305.53 105.95C304.36 105.67 303.65 104.49 303.95 103.32C304.24 102.16 305.41 101.45 306.57 101.74C307.73 102.03 308.44 103.21 308.15 104.38C307.91 105.37 307.03 106.02 306.05 106.02ZM292.7 102.7C292.53 102.7 292.34 102.68 292.17 102.64C291.01 102.35 290.3 101.16 290.6 100C290.88 98.84 292.06 98.13 293.22 98.41C294.38 98.7 295.08 99.89 294.8 101.05C294.55 102.03 293.66 102.7 292.7 102.7ZM279.33 99.37C279.16 99.37 278.98 99.35 278.81 99.3C277.65 99.01 276.94 97.84 277.23 96.66C277.52 95.5 278.69 94.79 279.86 95.09C281.02 95.37 281.73 96.55 281.44 97.72C281.2 98.7 280.31 99.37 279.33 99.37Z" fill="#BC8B2C"/>
<path d="M265.98 96.03C266.27 96.03 266.54 95.98 266.81 95.87C267.07 95.76 267.31 95.6 267.5 95.39C267.91 94.99 268.14 94.45 268.14 93.86C268.14 93.3 267.91 92.73 267.5 92.33C267.4 92.22 267.29 92.14 267.18 92.06C267.06 91.98 266.94 91.91 266.81 91.85C266.67 91.79 266.54 91.76 266.4 91.73C265.7 91.59 264.95 91.82 264.45 92.33C264.34 92.43 264.26 92.54 264.18 92.66C264.1 92.78 264.03 92.91 263.97 93.04C263.92 93.17 263.87 93.3 263.85 93.44C263.82 93.58 263.81 93.72 263.81 93.86C263.81 94.15 263.86 94.44 263.97 94.69C264.08 94.95 264.24 95.19 264.45 95.39C264.85 95.81 265.39 96.03 265.98 96.03Z" fill="#BC8B2C"/>
<path d="M340.77 54.74C349.24 25.92 361.21 21.91 372.98 22.14C366.36 42.8 359.04 60.12 340.77 54.74Z" fill="#4E7C19"/>
<path d="M340.77 54.74L319.48 60.91C311.26 63.29 302.43 62.21 295.02 57.93C307.97 47.06 326.44 45.78 340.77 54.74Z" fill="#3D6213"/>
<path d="M120.43 109.99L129.97 107.96C118.31 53.07 91.96 35.31 90.85 34.58L89.47 46.11C91.89 48.42 95.22 52.01 98.85 57.13C105.59 66.64 114.81 83.52 120.43 109.99Z" fill="#4E7C19"/>
<path d="M107.43 64.87L134.92 58.75C140.62 57.48 145.6 54.04 148.8 49.16L154.01 41.23C154.01 41.23 125.63 44.34 107.43 64.87Z" fill="#4E7C19"/>
<path d="M107.43 64.87C113.16 58.4 119.9 53.67 126.45 50.21C129.31 55.6 134.45 59.34 140.16 56.84C138.51 57.68 136.75 58.34 134.92 58.75L107.43 64.87Z" fill="#3D6213"/>
<path d="M107.43 64.87C139.2 57.79 141.79 50.78 145.59 29.82C115.04 36.63 107.43 64.87 107.43 64.87Z" fill="#3D6213"/>
<path d="M107.43 64.87L79.65 75.69V51.8C97.07 52.6 107.43 64.87 107.43 64.87Z" fill="#3D6213"/>
<path d="M179.94 131H79.65V71.07L143.8 56.77C162.84 52.53 181.79 64.49 186.01 83.56C189.24 98.16 185.84 115.06 179.94 131Z" fill="#5A0A00"/>
<path d="M140.97 131C138.31 117.48 135.06 103.29 132.2 90.38C128.6 74.12 112.56 67.8 102.93 65.87L143.8 56.77C162.84 52.53 181.79 64.49 186.01 83.56C189.24 98.16 185.84 115.06 179.94 131H140.97Z" fill="#870F00"/>
<path d="M85.4801 115.94C84.5101 115.94 83.63 115.28 83.38 114.29C83.09 113.13 83.8 111.95 84.96 111.66C86.12 111.37 87.2901 112.07 87.5801 113.23C87.8701 114.4 87.16 115.57 86 115.87C85.82 115.92 85.6501 115.94 85.4801 115.94ZM98.6501 112.66C97.67 112.66 96.8001 112.01 96.5501 111.02C96.2601 109.85 96.96 108.68 98.13 108.38C99.29 108.1 100.46 108.8 100.75 109.96C101.04 111.12 100.34 112.3 99.17 112.6C98.99 112.65 98.8201 112.66 98.6501 112.66ZM111.82 109.38C110.84 109.38 109.97 108.72 109.72 107.73C109.43 106.57 110.14 105.39 111.3 105.1C112.46 104.81 113.63 105.51 113.92 106.68C114.21 107.84 113.5 109.01 112.34 109.31C112.16 109.36 111.99 109.38 111.82 109.38ZM124.99 106.1C124.02 106.1 123.14 105.44 122.89 104.45C122.6 103.29 123.3 102.11 124.47 101.81C125.63 101.53 126.8 102.23 127.09 103.39C127.38 104.55 126.68 105.73 125.51 106.03C125.33 106.08 125.16 106.1 124.99 106.1ZM138.16 102.82C137.18 102.82 136.31 102.16 136.06 101.17C135.77 100.01 136.47 98.83 137.64 98.54C138.8 98.25 139.97 98.96 140.26 100.12C140.55 101.28 139.84 102.45 138.68 102.75C138.5 102.79 138.33 102.82 138.16 102.82ZM151.33 99.54C150.36 99.54 149.48 98.88 149.23 97.89C148.94 96.73 149.64 95.55 150.81 95.26C151.97 94.97 153.14 95.67 153.43 96.83C153.72 97.99 153.02 99.17 151.85 99.47C151.67 99.52 151.5 99.54 151.33 99.54ZM164.5 96.25C163.52 96.25 162.65 95.59 162.4 94.6C162.11 93.44 162.81 92.27 163.98 91.97C165.14 91.68 166.31 92.39 166.6 93.55C166.89 94.71 166.18 95.89 165.02 96.18C164.85 96.23 164.67 96.25 164.5 96.25Z" fill="#BC8B2C"/>
<path d="M177.67 92.97C178.24 92.97 178.79 92.74 179.2 92.33C179.61 91.92 179.84 91.38 179.84 90.8C179.84 90.66 179.83 90.52 179.8 90.38C179.77 90.24 179.73 90.1 179.68 89.97C179.63 89.84 179.55 89.72 179.47 89.6C179.39 89.48 179.31 89.37 179.2 89.26C179.1 89.16 178.99 89.08 178.88 89C178.76 88.91 178.63 88.85 178.5 88.79C178.37 88.73 178.24 88.69 178.1 88.67C177.82 88.62 177.54 88.61 177.25 88.67C177.11 88.69 176.97 88.74 176.84 88.79C176.71 88.84 176.59 88.91 176.47 89C176.35 89.08 176.24 89.16 176.15 89.26C176.04 89.37 175.95 89.48 175.88 89.6C175.79 89.72 175.73 89.84 175.67 89.97C175.62 90.1 175.57 90.24 175.55 90.38C175.52 90.52 175.51 90.66 175.51 90.8C175.51 91.38 175.74 91.93 176.15 92.33C176.54 92.75 177.08 92.97 177.67 92.97Z" fill="#BC8B2C"/>
<path d="M87.97 83.33C87 83.33 86.12 82.67 85.87 81.68C85.59 80.52 86.29 79.34 87.45 79.05C88.61 78.76 89.79 79.46 90.07 80.62C90.36 81.79 89.66 82.96 88.5 83.26C88.32 83.31 88.14 83.33 87.97 83.33ZM101.18 80.03C100.21 80.03 99.33 79.37 99.08 78.38C98.8 77.22 99.5 76.05 100.66 75.75C101.82 75.46 103 76.17 103.28 77.33C103.57 78.49 102.87 79.66 101.7 79.96C101.53 80.01 101.36 80.03 101.18 80.03ZM114.4 76.74C113.42 76.74 112.55 76.08 112.3 75.09C112.01 73.93 112.71 72.75 113.88 72.46C115.04 72.17 116.22 72.87 116.5 74.03C116.79 75.2 116.09 76.37 114.92 76.67C114.74 76.72 114.57 76.74 114.4 76.74ZM127.61 73.44C126.64 73.44 125.76 72.79 125.51 71.8C125.22 70.63 125.92 69.46 127.09 69.16C128.25 68.88 129.42 69.58 129.71 70.74C130 71.9 129.3 73.08 128.13 73.37C127.96 73.42 127.78 73.44 127.61 73.44ZM140.82 70.16C139.84 70.16 138.96 69.5 138.72 68.51C138.43 67.35 139.13 66.17 140.3 65.88C141.46 65.59 142.63 66.3 142.92 67.45C143.2 68.62 142.5 69.79 141.34 70.09C141.17 70.13 141 70.16 140.82 70.16Z" fill="#BC8B2C"/>
<path d="M154.04 66.87C154.32 66.87 154.6 66.8 154.86 66.7C155.12 66.59 155.36 66.44 155.56 66.23C155.67 66.13 155.76 66.01 155.83 65.89C155.92 65.78 155.98 65.65 156.04 65.52C156.09 65.39 156.14 65.26 156.16 65.12C156.19 64.98 156.2 64.84 156.2 64.7C156.2 64.55 156.19 64.41 156.16 64.27C156.13 64.14 156.1 64 156.04 63.87C155.97 63.74 155.91 63.61 155.83 63.49C155.75 63.37 155.66 63.26 155.56 63.16C155.46 63.06 155.35 62.96 155.24 62.89C155.12 62.81 154.99 62.75 154.86 62.69C154.73 62.64 154.6 62.59 154.46 62.56C154.18 62.5 153.9 62.5 153.61 62.56C153.47 62.59 153.33 62.64 153.2 62.69C153.07 62.75 152.95 62.81 152.83 62.89C152.71 62.97 152.6 63.06 152.49 63.16C152.39 63.26 152.31 63.37 152.22 63.49C152.14 63.61 152.08 63.74 152.03 63.87C151.98 64 151.93 64.14 151.91 64.27C151.88 64.41 151.87 64.55 151.87 64.7C151.87 64.84 151.88 64.98 151.91 65.12C151.93 65.26 151.98 65.39 152.03 65.52C152.08 65.65 152.15 65.78 152.22 65.89C152.31 66.01 152.39 66.13 152.49 66.23C152.6 66.33 152.71 66.42 152.83 66.5C152.95 66.58 153.07 66.64 153.2 66.69C153.33 66.74 153.47 66.79 153.6 66.82C153.75 66.85 153.9 66.87 154.04 66.87Z" fill="#BC8B2C"/>
<path d="M84 100.34C83.03 100.34 82.15 99.69 81.9 98.7C81.61 97.54 82.31 96.37 83.47 96.07C84.63 95.77 85.81 96.47 86.1 97.63C86.39 98.79 85.7 99.97 84.53 100.27C84.36 100.32 84.18 100.34 84 100.34ZM96.86 97.09C95.9 97.09 95.01 96.43 94.76 95.45C94.47 94.29 95.17 93.11 96.33 92.81C97.49 92.52 98.67 93.21 98.96 94.37C99.25 95.53 98.55 96.71 97.39 97.01C97.22 97.05 97.03 97.09 96.86 97.09ZM109.71 93.82C108.75 93.82 107.86 93.17 107.61 92.18C107.32 91.02 108.02 89.84 109.18 89.54C110.34 89.25 111.52 89.95 111.81 91.11C112.1 92.27 111.4 93.45 110.24 93.75C110.07 93.8 109.89 93.82 109.71 93.82ZM122.57 90.55C121.6 90.55 120.72 89.9 120.47 88.91C120.18 87.75 120.88 86.57 122.04 86.27C123.2 85.98 124.38 86.68 124.67 87.84C124.96 89 124.26 90.18 123.1 90.48C122.93 90.53 122.74 90.55 122.57 90.55ZM135.43 87.29C134.46 87.29 133.58 86.64 133.33 85.65C133.04 84.49 133.74 83.32 134.9 83.01C136.06 82.72 137.24 83.42 137.53 84.58C137.82 85.74 137.12 86.92 135.96 87.22C135.78 87.27 135.6 87.29 135.43 87.29ZM148.28 84.03C147.3 84.03 146.43 83.37 146.18 82.39C145.89 81.23 146.59 80.05 147.75 79.75C148.91 79.46 150.08 80.15 150.38 81.31C150.67 82.47 149.97 83.65 148.81 83.95C148.63 84.01 148.46 84.03 148.28 84.03ZM161.14 80.77C160.16 80.77 159.29 80.11 159.04 79.13C158.75 77.97 159.45 76.79 160.6 76.49C161.77 76.2 162.95 76.9 163.24 78.05C163.53 79.22 162.83 80.39 161.67 80.7C161.48 80.75 161.31 80.77 161.14 80.77Z" fill="#BC8B2C"/>
<path d="M173.99 77.5C174.56 77.5 175.11 77.27 175.52 76.87C175.62 76.76 175.71 76.65 175.79 76.53C175.87 76.41 175.94 76.29 176 76.16C176.05 76.03 176.09 75.89 176.12 75.76C176.14 75.62 176.16 75.48 176.16 75.33C176.16 75.19 176.14 75.05 176.12 74.91C176.09 74.77 176.04 74.64 175.99 74.51C175.94 74.38 175.87 74.25 175.8 74.13C175.72 74.01 175.63 73.9 175.53 73.8C174.73 72.99 173.28 72.99 172.46 73.8C172.36 73.9 172.28 74.01 172.19 74.13C172.11 74.25 172.05 74.38 172 74.51C171.95 74.64 171.9 74.77 171.88 74.91C171.85 75.05 171.84 75.19 171.84 75.33C171.84 75.92 172.07 76.46 172.47 76.87C172.87 77.27 173.41 77.5 173.99 77.5Z" fill="#BC8B2C"/>
<path d="M105.24 44.06C106.02 30.49 112.46 24.65 119.86 20.74C121.92 31.19 123.44 41.01 122.26 48.8C115.19 63.58 105.41 51.05 105.24 44.06Z" fill="#4E7C19"/>
<path d="M105.24 44.06C105.41 51.04 115.19 63.58 122.26 48.8C121.03 56.88 116.9 62.76 107.43 64.87C105.54 56.39 104.92 49.59 105.24 44.06Z" fill="#3D6213"/>
<path d="M368.6 34.59C362.79 49.1 355.19 58.99 340.77 54.74C352.71 55.15 368.58 34.6 368.6 34.59Z" fill="#3D6213"/>
<path d="M49.9 112.16C78.44 72.03 76.1 34.94 76.04 33.3L67.32 37.77C66.72 48.6 63.07 78.81 41.53 109.1L49.9 112.16Z" fill="#4E7C19"/>
<path d="M63.1 73.69L83.5 87.94C87.73 90.89 92.94 92.08 98.03 91.26L106.3 89.92C106.3 89.91 87.32 73.28 63.1 73.69Z" fill="#4E7C19"/>
<path d="M63.1 73.69C86.68 90.16 92.79 87.66 108.68 77.62C86.01 61.78 63.1 73.69 63.1 73.69Z" fill="#3D6213"/>
<path d="M63.1 73.69L62.54 73.66C49.32 72.97 38.39 63.09 36.36 49.99C36.35 49.99 55.07 46.31 63.1 73.69Z" fill="#4E7C19"/>
<path d="M63.1 73.69C44.73 60.85 44.92 55.71 47.98 41.38C65.64 53.72 63.1 73.69 63.1 73.69Z" fill="#3D6213"/>
<path d="M90.09 92.54L36.1 54.83C24.95 47.04 10.45 47.52 0 55.03V112.27H102.93C101.51 104.39 97.16 97.48 90.09 92.54Z" fill="#AB1300"/>
<path d="M59.97 112.26C64.6 96.24 61.37 78.17 49.13 64.65C48.21 63.63 47.36 62.79 46.6 62.16L90.09 92.54C97.05 97.4 101.44 104.51 102.93 112.26H59.97Z" fill="#E11900"/>
<path d="M93.77 106.11C94.34 106.11 94.89 105.88 95.3 105.47C95.71 105.07 95.94 104.52 95.94 103.94C95.94 103.36 95.7 102.81 95.3 102.41C94.8 101.9 94.04 101.66 93.35 101.81C93.21 101.83 93.07 101.87 92.94 101.93C92.81 101.98 92.68 102.05 92.57 102.14C92.45 102.22 92.34 102.3 92.23 102.41C91.83 102.81 91.59 103.36 91.59 103.94C91.59 104.52 91.82 105.07 92.23 105.47C92.64 105.88 93.18 106.11 93.77 106.11Z" fill="#BC8B2C"/>
<path d="M82.12 98.25C81.7 98.25 81.28 98.13 80.91 97.88C79.91 97.21 79.65 95.86 80.32 94.86C80.99 93.87 82.34 93.6 83.33 94.27C84.32 94.94 84.58 96.29 83.9 97.29C83.5 97.91 82.82 98.25 82.12 98.25ZM70.48 90.38C70.06 90.38 69.64 90.26 69.27 90.01C68.27 89.34 68.01 87.99 68.68 86.99C69.35 86 70.7 85.73 71.69 86.4C72.68 87.07 72.94 88.42 72.28 89.42C71.86 90.04 71.18 90.38 70.48 90.38ZM58.84 82.51C58.42 82.51 57.99 82.39 57.63 82.14C56.63 81.47 56.37 80.12 57.04 79.12C57.71 78.13 59.06 77.87 60.05 78.53C61.04 79.2 61.31 80.56 60.64 81.55C60.22 82.18 59.53 82.51 58.84 82.51ZM47.2 74.64C46.78 74.64 46.36 74.52 45.99 74.27C45 73.6 44.73 72.25 45.4 71.26C46.07 70.26 47.42 70 48.41 70.67C49.4 71.33 49.67 72.69 49 73.68C48.57 74.31 47.89 74.64 47.2 74.64ZM35.56 66.78C35.15 66.78 34.73 66.66 34.35 66.41C33.36 65.74 33.1 64.39 33.78 63.4C34.44 62.4 35.78 62.14 36.78 62.81C37.78 63.48 38.04 64.83 37.37 65.82C36.93 66.45 36.25 66.78 35.56 66.78Z" fill="#BC8B2C"/>
<path d="M23.91 58.92C24.06 58.92 24.2 58.9 24.34 58.88C24.47 58.85 24.61 58.8 24.74 58.75C24.87 58.7 24.99 58.63 25.11 58.56C25.23 58.49 25.34 58.39 25.45 58.29C25.55 58.19 25.63 58.07 25.72 57.96C25.8 57.84 25.86 57.71 25.91 57.58C25.96 57.45 26.01 57.32 26.03 57.18C26.06 57.04 26.07 56.9 26.07 56.76C26.07 56.62 26.06 56.47 26.03 56.34C26.01 56.2 25.97 56.06 25.91 55.93C25.86 55.8 25.79 55.67 25.7 55.56C25.62 55.44 25.54 55.32 25.44 55.22C25.33 55.12 25.22 55.04 25.1 54.95C24.98 54.87 24.86 54.81 24.73 54.76C24.6 54.71 24.46 54.66 24.32 54.63C24.04 54.58 23.76 54.58 23.47 54.63C23.33 54.66 23.2 54.71 23.07 54.76C22.94 54.81 22.81 54.88 22.69 54.95C22.57 55.04 22.46 55.12 22.37 55.22C22.27 55.32 22.17 55.44 22.1 55.56C22.02 55.67 21.95 55.8 21.89 55.93C21.84 56.06 21.8 56.2 21.77 56.34C21.74 56.47 21.73 56.62 21.73 56.76C21.73 56.9 21.74 57.04 21.77 57.18C21.8 57.32 21.84 57.45 21.89 57.58C21.94 57.71 22.01 57.84 22.1 57.96C22.18 58.07 22.26 58.19 22.37 58.29C22.8 58.69 23.34 58.92 23.91 58.92Z" fill="#BC8B2C"/>
<path d="M81.09 112.26C80.68 112.26 80.25 112.14 79.88 111.88C78.89 111.22 78.63 109.86 79.29 108.87C79.96 107.87 81.32 107.61 82.3 108.28C83.3 108.95 83.56 110.3 82.89 111.3C82.46 111.92 81.78 112.26 81.09 112.26ZM70.52 105.12C70.11 105.12 69.68 105 69.32 104.74C68.32 104.08 68.06 102.72 68.73 101.73C69.4 100.73 70.75 100.47 71.74 101.14C72.73 101.81 72.99 103.16 72.31 104.15C71.91 104.78 71.22 105.12 70.52 105.12ZM59.96 97.98C59.54 97.98 59.11 97.86 58.75 97.61C57.75 96.94 57.49 95.58 58.16 94.59C58.83 93.59 60.18 93.33 61.17 94C62.17 94.67 62.42 96.02 61.76 97.02C61.34 97.64 60.65 97.98 59.96 97.98ZM49.39 90.84C48.97 90.84 48.55 90.72 48.18 90.47C47.19 89.8 46.93 88.45 47.59 87.45C48.26 86.45 49.62 86.19 50.6 86.86C51.6 87.53 51.86 88.88 51.19 89.88C50.77 90.5 50.09 90.84 49.39 90.84ZM38.82 83.7C38.41 83.7 37.98 83.58 37.62 83.33C36.62 82.66 36.36 81.31 37.03 80.31C37.69 79.31 39.05 79.05 40.03 79.72C41.03 80.39 41.29 81.74 40.62 82.74C40.21 83.36 39.52 83.7 38.82 83.7ZM28.25 76.56C27.84 76.56 27.41 76.44 27.05 76.19C26.05 75.52 25.79 74.17 26.46 73.17C27.13 72.18 28.48 71.91 29.47 72.58C30.46 73.25 30.72 74.6 30.06 75.6C29.64 76.22 28.96 76.56 28.25 76.56ZM17.7 69.42C17.28 69.42 16.87 69.3 16.49 69.05C15.5 68.38 15.23 67.03 15.9 66.03C16.57 65.04 17.92 64.77 18.91 65.44C19.91 66.11 20.17 67.46 19.5 68.46C19.07 69.09 18.39 69.42 17.7 69.42Z" fill="#BC8B2C"/>
<path d="M7.05001 62.54C7.34001 62.54 7.62001 62.49 7.88001 62.38C8.14001 62.27 8.38001 62.11 8.59001 61.91C8.80001 61.7 8.95002 61.46 9.06002 61.21C9.17002 60.95 9.22002 60.67 9.22002 60.37C9.22002 59.81 8.99002 59.24 8.59001 58.84C8.48002 58.74 8.37001 58.65 8.25001 58.57C8.13001 58.49 8.01002 58.43 7.88001 58.38C7.75001 58.33 7.61001 58.28 7.47001 58.25C7.20001 58.2 6.91001 58.2 6.63001 58.25C6.49001 58.28 6.36001 58.33 6.23001 58.38C6.10001 58.43 5.97001 58.5 5.85001 58.57C5.73001 58.65 5.62002 58.74 5.53001 58.84C5.13001 59.24 4.89001 59.81 4.89001 60.37C4.89001 60.66 4.95001 60.95 5.05001 61.21C5.17001 61.47 5.32002 61.71 5.53001 61.91C5.74001 62.11 5.97001 62.27 6.24001 62.38C6.49001 62.48 6.77002 62.54 7.05001 62.54Z" fill="#BC8B2C"/>
<path d="M49.8 108.12C49.38 108.12 48.95 108 48.59 107.75C47.59 107.08 47.33 105.73 48 104.73C48.67 103.74 50.02 103.48 51.01 104.15C52 104.81 52.26 106.17 51.6 107.16C51.18 107.79 50.49 108.12 49.8 108.12ZM39.23 100.98C38.82 100.98 38.39 100.86 38.02 100.61C37.03 99.94 36.76 98.59 37.43 97.6C38.1 96.6 39.46 96.34 40.44 97.01C41.44 97.67 41.7 99.03 41.03 100.02C40.61 100.65 39.93 100.98 39.23 100.98ZM28.66 93.85C28.25 93.85 27.82 93.72 27.45 93.47C26.46 92.8 26.2 91.45 26.88 90.46C27.54 89.46 28.9 89.2 29.88 89.87C30.88 90.54 31.14 91.89 30.47 92.89C30.04 93.51 29.36 93.85 28.66 93.85ZM18.09 86.71C17.68 86.71 17.25 86.59 16.89 86.33C15.89 85.67 15.63 84.31 16.3 83.32C16.97 82.32 18.32 82.06 19.31 82.73C20.3 83.4 20.56 84.75 19.88 85.74C19.48 86.37 18.8 86.71 18.09 86.71ZM7.54002 79.57C7.12002 79.57 6.69002 79.45 6.33002 79.2C5.33002 78.53 5.07002 77.17 5.74002 76.18C6.41002 75.18 7.76002 74.92 8.75002 75.59C9.74002 76.26 10 77.61 9.34002 78.61C8.91002 79.24 8.23002 79.57 7.54002 79.57Z" fill="#BC8B2C"/>
<path d="M25.52 108.43C25.11 108.43 24.68 108.3 24.31 108.05C23.32 107.38 23.06 106.03 23.74 105.04C24.4 104.04 25.76 103.78 26.74 104.45C27.74 105.12 28 106.47 27.33 107.46C26.91 108.1 26.21 108.43 25.52 108.43ZM14.05 100.68C13.63 100.68 13.22 100.56 12.84 100.31C11.85 99.64 11.58 98.29 12.25 97.29C12.92 96.3 14.27 96.03 15.26 96.7C16.25 97.37 16.52 98.72 15.85 99.72C15.43 100.34 14.74 100.68 14.05 100.68ZM2.58 92.93C2.16 92.93 1.73 92.81 1.37 92.56C0.369996 91.89 0.109996 90.53 0.779996 89.54C1.45 88.54 2.8 88.28 3.79 88.95C4.78 89.62 5.04 90.97 4.36 91.97C3.96 92.59 3.28 92.93 2.58 92.93Z" fill="#BC8B2C"/>
<path d="M63.1 73.69C78.27 51.93 82.76 58.26 92.55 61.76C81.22 77.21 76.9 83.33 63.1 73.69Z" fill="#4E7C19"/>
<path d="M381.99 107.64H0V131H381.99V107.64Z" fill="#048848"/>
<path d="M381.99 97.3H0V131H381.99V97.3Z" fill="#048848"/>
<path d="M381.99 97.3H0V107.63H381.99V97.3Z" fill="#06C167"/>
</svg>
