<svg viewBox="0 0 24 24">
  <path d="M21.1667 2.83333H19.3333V1.45833C19.3333 1.20522 19.1283 1 18.875 1H17.9583C17.705 1 17.5 1.20522 17.5 1.45833V2.83333H6.5V1.45833C6.5 1.20522 6.295 1 6.04167 1H5.125C4.87166 1 4.66667 1.20522 4.66667 1.45833V2.83333H2.83333C1.82088 2.83333 1 3.6541 1 4.66667V21.1667C1 22.1791 1.82088 23 2.83333 23H21.1667C22.1791 23 23 22.1791 23 21.1667V4.66667C23 3.6541 22.1791 2.83333 21.1667 2.83333ZM4.66667 4.66667H6.5V6.5H4.66667V4.66667V4.66667ZM8.33333 19.3333H4.66667V15.6667H8.33333V19.3333ZM13.8333 19.3333H10.1667V15.6667H13.8333V19.3333ZM13.8333 13.8333H10.1667V10.1667H13.8333V13.8333ZM19.3333 19.3333H15.6667V15.6667H19.3333V19.3333ZM19.3333 13.8333H15.6667V10.1667H19.3333V13.8333ZM19.3333 6.5H17.5V4.66667H19.3333V6.5Z" fill="black"/>
</svg>
