<svg viewBox="0 0 24 24">
  <g transform="matrix(
    1 0
    0 1
    1 0.899993896484375
  )"><path fill-rule="nonzero" clip-rule="nonzero" d="M 21.60009765625 19.500030517578125 L 17.2001953125 15.100006103515625 C 18.300195693969727 13.500005722045898 19 11.600030899047852 19 9.500030517578125 C 19 4.300030708312988 14.699999809265137 0 9.5 0 C 4.300000190734863 0 0 4.300030708312988 0 9.500030517578125 C 0 14.700030326843262 4.300000190734863 19.000030517578125 9.5 19.000030517578125 C 11.600000381469727 19.000030517578125 13.500097274780273 18.29998207092285 15.10009765625 17.199981689453125 L 19.5 21.600006103515625 L 21.60009765625 19.500030517578125 Z M 3 9.600006103515625 C 3 6.000006198883057 5.900000095367432 3.100006103515625 9.5 3.100006103515625 C 13.100000381469727 3.100006103515625 16 6.000006198883057 16 9.600006103515625 C 16 13.200006484985352 13.100000381469727 16.100006103515625 9.5 16.100006103515625 C 5.900000095367432 16.100006103515625 3 13.200006484985352 3 9.600006103515625 Z" fill="currentColor"/></g>
</svg>
