<svg width="791" height="292" viewBox="0 0 791 292" fill="none" xmlns="http://www.w3.org/2000/svg">
<path d="M245 15H304.654C311.334 15 317.548 16.164 323.296 18.4921C329.199 20.665 334.248 23.6915 338.443 27.5716C342.793 31.2965 346.133 35.7975 348.463 41.0745C350.948 46.1962 352.191 51.706 352.191 57.6038C352.191 64.5881 350.327 71.0291 346.599 76.9269C343.026 82.6695 338.21 87.3256 332.151 90.8953C341.472 93.9994 348.929 99.2764 354.521 106.726C360.269 114.021 363.143 122.402 363.143 131.869C363.143 138.233 361.9 144.208 359.415 149.796C356.929 155.383 353.434 160.272 348.929 164.463C344.579 168.653 339.375 171.99 333.316 174.473C327.413 176.801 320.966 177.965 313.975 177.965H245V15ZM269.468 35.7199V83.4455H302.79C306.363 83.4455 309.625 82.8247 312.577 81.583C315.684 80.3414 318.325 78.6341 320.5 76.4613C322.675 74.2884 324.384 71.8051 325.626 69.0114C326.869 66.0625 327.491 62.9584 327.491 59.6991C327.491 52.8701 325.16 47.2051 320.5 42.7041C315.995 38.048 310.091 35.7199 302.79 35.7199H269.468ZM310.713 157.246C318.946 157.246 325.626 154.685 330.753 149.563C335.879 144.286 338.443 137.845 338.443 130.24C338.443 126.515 337.744 123.1 336.345 119.996C334.947 116.737 333.005 113.943 330.52 111.615C328.19 109.132 325.316 107.192 321.898 105.795C318.48 104.398 314.752 103.7 310.713 103.7H269.468V157.246H310.713Z" fill="white"/>
<path d="M371.718 145.14C371.718 134.741 375.058 126.593 381.738 120.695C388.573 114.642 398.205 111.227 410.633 110.451L447.684 107.657V99.9748C447.684 93.1458 445.587 87.8688 441.392 84.1439C437.198 80.2638 431.139 78.3237 423.216 78.3237C417.468 78.3237 411.953 79.2549 406.671 81.1174C401.39 82.8247 396.263 85.696 391.292 89.7313L380.806 72.7363C387.02 67.4593 393.933 63.5792 401.545 61.0959C409.312 58.4574 417.624 57.1382 426.479 57.1382C433.159 57.1382 439.217 58.0694 444.654 59.9319C450.092 61.7944 454.752 64.5104 458.636 68.0802C462.52 71.4947 465.471 75.6852 467.491 80.6518C469.666 85.4632 470.753 90.8953 470.753 96.9483V150.494C470.753 154.995 473.083 157.246 477.744 157.246H483.803V177.965H472.151C466.403 177.965 461.51 176.646 457.471 174.008C453.587 171.369 450.868 167.722 449.315 163.066C445.276 168.498 440.072 172.766 433.702 175.87C427.333 178.974 420.187 180.526 412.264 180.526C406.361 180.526 400.924 179.673 395.952 177.965C391.137 176.258 386.864 173.852 383.136 170.748C379.563 167.489 376.767 163.687 374.747 159.341C372.728 154.995 371.718 150.261 371.718 145.14ZM394.321 144.907C394.321 150.029 396.418 154.219 400.613 157.478C404.807 160.582 410.245 162.135 416.925 162.135C421.119 162.135 425.08 161.436 428.809 160.039C432.537 158.642 435.799 156.78 438.596 154.452C441.392 151.969 443.567 149.097 445.12 145.838C446.829 142.579 447.684 139.087 447.684 135.362V125.584L414.128 128.377C400.924 129.309 394.321 134.818 394.321 144.907Z" fill="white"/>
<path d="M540.502 180.526C533.201 180.526 526.598 179.517 520.695 177.5C514.792 175.482 509.587 172.766 505.082 169.352C500.733 165.782 497.16 161.591 494.363 156.78C491.567 151.969 489.625 146.769 488.538 141.182H511.141C512.539 148.011 515.879 153.133 521.161 156.547C526.443 159.962 532.812 161.669 540.269 161.669C546.794 161.669 551.843 160.272 555.416 157.478C559.144 154.685 561.008 151.037 561.008 146.536C561.008 139.242 555.571 134.12 544.696 131.171L522.792 125.816C501.354 120.384 490.635 109.21 490.635 92.2922C490.635 86.86 491.645 81.971 493.664 77.6253C495.839 73.2795 498.713 69.5546 502.286 66.4505C506.014 63.3464 510.364 60.9407 515.335 59.2335C520.462 57.5262 526.055 56.6726 532.113 56.6726C539.104 56.6726 545.396 57.6814 550.988 59.6991C556.736 61.7168 561.707 64.5104 565.902 68.0802C570.096 71.4947 573.514 75.6076 576.155 80.419C578.796 85.2303 580.505 90.4297 581.281 96.0171H558.678C557.28 89.1881 553.94 84.0663 548.658 80.6518C543.531 77.2373 537.939 75.53 531.88 75.53C526.132 75.53 521.627 76.9269 518.365 79.7206C515.258 82.359 513.704 85.7735 513.704 89.9641C513.704 97.4139 519.374 102.536 530.715 105.329L551.221 110.684C573.125 116.271 584.078 127.601 584.078 144.674C584.078 149.796 583.068 154.529 581.048 158.875C579.029 163.221 576.077 167.023 572.193 170.283C568.465 173.542 563.882 176.103 558.445 177.965C553.163 179.673 547.182 180.526 540.502 180.526Z" fill="white"/>
<path d="M591.352 118.599C591.352 110.218 592.906 102.303 596.013 94.8531C599.12 87.4032 603.392 80.8846 608.829 75.2972C614.266 69.5546 620.713 65.0537 628.17 61.7944C635.627 58.5351 643.705 56.9054 652.405 56.9054C660.949 56.9054 668.872 58.4574 676.173 61.5616C683.475 64.6657 689.766 69.0114 695.048 74.5988C700.33 80.031 704.447 86.5496 707.398 94.1546C710.35 101.604 711.826 109.753 711.826 118.599V126.282H615.121C615.897 131.093 617.451 135.594 619.781 139.785C622.111 143.82 624.985 147.39 628.403 150.494C631.976 153.443 635.938 155.771 640.287 157.478C644.793 159.186 649.531 160.039 654.502 160.039C668.639 160.039 680.057 154.219 688.756 142.579L705.767 155.15C699.864 163.066 692.562 169.274 683.863 173.775C675.163 178.276 665.376 180.526 654.502 180.526C645.647 180.526 637.336 178.974 629.568 175.87C621.956 172.766 615.276 168.42 609.528 162.833C603.936 157.246 599.508 150.727 596.246 143.277C592.983 135.672 591.352 127.446 591.352 118.599ZM651.939 77.3925C643.084 77.3925 635.316 80.1862 628.636 85.7736C622.111 91.2057 617.762 98.5004 615.587 107.657H688.057C686.038 98.5004 681.688 91.2057 675.008 85.7736C668.483 80.1862 660.793 77.3925 651.939 77.3925Z" fill="white"/>
<path d="M300.2 268.938L313.186 218.8H319.894L303.554 279H297.276L280.334 228.69L263.478 279H257.2L240.86 218.8H247.74L260.726 269.024L277.496 218.8H283.344L300.2 268.938ZM322.775 257.414C322.775 254.318 323.32 251.423 324.41 248.728C325.556 246.033 327.104 243.683 329.054 241.676C331.06 239.612 333.382 238.007 336.02 236.86C338.714 235.656 341.61 235.054 344.706 235.054C347.687 235.054 350.468 235.627 353.048 236.774C355.628 237.863 357.864 239.411 359.756 241.418C361.648 243.367 363.138 245.661 364.228 248.298C365.317 250.935 365.862 253.802 365.862 256.898V259.306H328.968C329.197 261.427 329.77 263.405 330.688 265.24C331.662 267.075 332.866 268.68 334.3 270.056C335.733 271.375 337.396 272.435 339.288 273.238C341.18 273.983 343.186 274.356 345.308 274.356C348.117 274.356 350.668 273.754 352.962 272.55C355.312 271.289 357.319 269.54 358.982 267.304L363.626 270.572C361.562 273.439 358.953 275.703 355.8 277.366C352.646 278.971 349.178 279.774 345.394 279.774C342.183 279.774 339.202 279.201 336.45 278.054C333.698 276.907 331.318 275.331 329.312 273.324C327.305 271.317 325.7 268.967 324.496 266.272C323.349 263.52 322.775 260.567 322.775 257.414ZM344.706 240.472C342.756 240.472 340.922 240.816 339.202 241.504C337.482 242.192 335.934 243.138 334.558 244.342C333.182 245.546 332.006 246.979 331.032 248.642C330.114 250.305 329.484 252.139 329.14 254.146H359.67C359.383 252.139 358.781 250.305 357.864 248.642C357.004 246.979 355.886 245.546 354.51 244.342C353.191 243.138 351.7 242.192 350.038 241.504C348.375 240.816 346.598 240.472 344.706 240.472ZM375.204 218.8H381.396V243.138C383.403 240.615 385.84 238.637 388.706 237.204C391.63 235.771 394.812 235.054 398.252 235.054C401.348 235.054 404.272 235.627 407.024 236.774C409.776 237.921 412.156 239.526 414.162 241.59C416.169 243.597 417.746 245.976 418.892 248.728C420.096 251.423 420.698 254.318 420.698 257.414C420.698 260.567 420.096 263.52 418.892 266.272C417.746 268.967 416.169 271.346 414.162 273.41C412.156 275.417 409.776 276.993 407.024 278.14C404.33 279.287 401.406 279.86 398.252 279.86C394.755 279.86 391.573 279.143 388.706 277.71C385.84 276.277 383.403 274.327 381.396 271.862V279H375.204V218.8ZM381.31 257.414C381.31 259.765 381.74 261.972 382.6 264.036C383.46 266.1 384.636 267.906 386.126 269.454C387.674 270.945 389.452 272.149 391.458 273.066C393.465 273.926 395.615 274.356 397.908 274.356C400.202 274.356 402.352 273.926 404.358 273.066C406.365 272.149 408.114 270.945 409.604 269.454C411.152 267.906 412.356 266.1 413.216 264.036C414.076 261.972 414.506 259.765 414.506 257.414C414.506 255.063 414.076 252.885 413.216 250.878C412.356 248.814 411.152 247.037 409.604 245.546C408.114 243.998 406.365 242.794 404.358 241.934C402.352 241.017 400.202 240.558 397.908 240.558C395.615 240.558 393.465 241.017 391.458 241.934C389.452 242.794 387.674 243.998 386.126 245.546C384.636 247.037 383.46 248.814 382.6 250.878C381.74 252.885 381.31 255.063 381.31 257.414Z" fill="white"/>
<path d="M100.374 50.7348C100.374 48.3086 100.374 47.0955 100.853 46.5338C101.268 46.0464 101.891 45.7877 102.528 45.838C103.263 45.896 104.119 46.7538 105.83 48.4693L153.416 96.1703C154.603 97.3598 155.196 97.9546 155.418 98.6404C155.614 99.2436 155.614 99.8935 155.418 100.497C155.196 101.183 154.603 101.777 153.416 102.967L105.83 150.668C104.119 152.383 103.263 153.241 102.528 153.299C101.891 153.349 101.268 153.091 100.853 152.603C100.374 152.042 100.374 150.828 100.374 148.402V50.7348Z" fill="#276EF1"/>
<path fill-rule="evenodd" clip-rule="evenodd" d="M118.47 7.65048C108.269 -2.55016 91.7308 -2.55016 81.5301 7.65049L7.65048 81.5301C-2.55016 91.7308 -2.55016 108.269 7.65049 118.47L81.5301 192.35C91.7308 202.55 108.269 202.55 118.47 192.35L192.35 118.47C202.55 108.269 202.55 91.7308 192.35 81.5301L118.47 7.65048ZM109.431 34.3313C104.331 29.2309 96.0613 29.2309 90.961 34.3313L35.5513 89.741C30.451 94.8413 30.451 103.111 35.5513 108.211L90.961 163.621C96.0613 168.721 104.331 168.721 109.431 163.621L164.841 108.211C169.941 103.111 169.941 94.8413 164.841 89.741L109.431 34.3313Z" fill="white"/>
</svg>
